<svg xmlns="http://www.w3.org/2000/svg" width="98" height="139" viewBox="0 0 98 139"><defs><clipPath id="pm5ea"><path fill="#fff" d="M49 0c27.062 0 49 21.938 49 49v41c0 27.062-21.938 49-49 49S0 117.062 0 90V49C0 21.938 21.938 0 49 0z"/></clipPath></defs><g><g><g><path fill="#f7f7f7" d="M49 0c27.062 0 49 21.938 49 49v41c0 27.062-21.938 49-49 49S0 117.062 0 90V49C0 21.938 21.938 0 49 0z"/><path fill="none" stroke="#e8e8e8" stroke-miterlimit="50" stroke-width="2" d="M49 0c27.062 0 49 21.938 49 49v41c0 27.062-21.938 49-49 49S0 117.062 0 90V49C0 21.938 21.938 0 49 0z" clip-path="url(&quot;#pm5ea&quot;)"/></g><g><g><text dominant-baseline="text-before-edge" style="line-height:48px" font-family="'Poppins','Poppins-Medium'" font-size="32" transform="translate(35 31)"><tspan style="font-kerning:normal">1</tspan><tspan style="font-kerning:normal">8</tspan></text></g></g><g><g><text dominant-baseline="text-before-edge" style="line-height:48px" fill="#9e9e9e" font-family="'Poppins','Poppins-Medium'" font-size="14" transform="translate(32 68)"><tspan style="font-kerning:normal">J</tspan><tspan style="font-kerning:normal">une</tspan></text></g></g><g><g><text dominant-baseline="text-before-edge" style="line-height:48px" fill="#9e9e9e" font-family="'Poppins-MediumItalic','Poppins-MediumItalic'" font-size="13" font-style="none" font-weight="400" transform="translate(35 90)"><tspan style="font-kerning:normal">2</tspan><tspan style="font-kerning:normal">016</tspan></text></g></g></g></g></svg>